# MagicaVoxel @ Ephtracy

# material
mtllib turret base.mtl
usemtl palette

# normals
vn -1 0 0
vn 1 0 0
vn 0 0 1
vn 0 0 -1
vn 0 -1 0
vn 0 1 0

# texcoords
vt 0.650391 0.5
vt 0.794922 0.5
vt 0.904297 0.5
vt 0.951172 0.5
vt 0.955078 0.5
vt 0.994141 0.5

# verts
v -30 0 30
v -30 0 -30
v -30 6 30
v -30 6 -30
v -29 6 21
v -29 6 -21
v -29 10 21
v -29 10 -21
v -28 6 28
v -28 6 21
v -28 6 -21
v -28 6 -28
v -28 9 25
v -28 9 23
v -28 9 -23
v -28 9 -25
v -28 10 25
v -28 10 24
v -28 10 23
v -28 10 21
v -28 10 -21
v -28 10 -23
v -28 10 -24
v -28 10 -25
v -28 11 28
v -28 11 24
v -28 11 -24
v -28 11 -28
v -23 10 20
v -23 10 -20
v -23 14 20
v -23 14 -20
v -22 10 21
v -22 10 20
v -22 10 -20
v -22 10 -21
v -22 14 21
v -22 14 20
v -22 14 -20
v -22 14 -21
v -22 15 18
v -22 15 -19
v -22 45 18
v -22 45 -19
v -21 6 29
v -21 6 28
v -21 6 -28
v -21 6 -29
v -21 10 29
v -21 10 28
v -21 10 22
v -21 10 21
v -21 10 -21
v -21 10 -22
v -21 10 -28
v -21 10 -29
v -21 14 22
v -21 14 21
v -21 14 -21
v -21 14 -22
v -20 10 23
v -20 10 22
v -20 10 -22
v -20 10 -23
v -20 14 23
v -20 14 22
v -20 14 -22
v -20 14 -23
v -20 15 20
v -20 15 18
v -20 15 -19
v -20 15 -21
v -20 45 20
v -20 45 18
v -20 45 -19
v -20 45 -21
v -19 14 19
v -19 14 -20
v -19 15 19
v -19 15 -20
v -18 15 22
v -18 15 20
v -18 15 -21
v -18 15 -23
v -18 45 22
v -18 45 20
v -18 45 -21
v -18 45 -23
v 24 10 28
v 24 10 24
v 24 10 -24
v 24 10 -28
v 24 11 28
v 24 11 24
v 24 11 -24
v 24 11 -28
v -24 10 28
v -24 10 24
v -24 10 -24
v -24 10 -28
v -24 11 28
v -24 11 24
v -24 11 -24
v -24 11 -28
v 19 15 22
v 19 15 20
v 19 15 -21
v 19 15 -23
v 19 45 22
v 19 45 20
v 19 45 -21
v 19 45 -23
v 20 14 19
v 20 14 -20
v 20 15 19
v 20 15 -20
v 21 6 29
v 21 6 28
v 21 6 -28
v 21 6 -29
v 21 10 29
v 21 10 28
v 21 10 23
v 21 10 22
v 21 10 -22
v 21 10 -23
v 21 10 -28
v 21 10 -29
v 21 14 23
v 21 14 22
v 21 14 -22
v 21 14 -23
v 21 15 20
v 21 15 18
v 21 15 -19
v 21 15 -21
v 21 45 20
v 21 45 18
v 21 45 -19
v 21 45 -21
v 22 10 22
v 22 10 21
v 22 10 -21
v 22 10 -22
v 22 14 22
v 22 14 21
v 22 14 -21
v 22 14 -22
v 23 10 21
v 23 10 20
v 23 10 -20
v 23 10 -21
v 23 14 21
v 23 14 20
v 23 14 -20
v 23 14 -21
v 23 15 18
v 23 15 -19
v 23 45 18
v 23 45 -19
v 24 10 20
v 24 10 -20
v 24 14 20
v 24 14 -20
v 28 6 28
v 28 6 21
v 28 6 -21
v 28 6 -28
v 28 9 25
v 28 9 23
v 28 9 -23
v 28 9 -25
v 28 10 25
v 28 10 24
v 28 10 23
v 28 10 21
v 28 10 -21
v 28 10 -23
v 28 10 -24
v 28 10 -25
v 28 11 28
v 28 11 24
v 28 11 -24
v 28 11 -28
v 29 6 21
v 29 6 -21
v 29 10 21
v 29 10 -21
v 30 0 30
v 30 0 -30
v 30 6 30
v 30 6 -30
v -30 0 30
v -30 6 30
v 30 0 30
v 30 6 30
v -21 6 29
v -21 10 29
v 21 6 29
v 21 10 29
v -28 6 28
v -28 11 28
v -25 9 28
v -25 10 28
v -24 10 28
v -24 11 28
v -23 9 28
v -23 10 28
v -21 6 28
v -21 10 28
v 21 6 28
v 21 10 28
v 23 9 28
v 23 10 28
v 24 10 28
v 24 11 28
v 25 9 28
v 25 10 28
v 28 6 28
v 28 11 28
v -20 10 23
v -20 14 23
v 21 10 23
v 21 14 23
v -21 10 22
v -21 14 22
v -20 10 22
v -20 14 22
v -18 15 22
v -18 45 22
v 19 15 22
v 19 45 22
v 21 10 22
v 21 14 22
v 22 10 22
v 22 14 22
v -29 6 21
v -29 10 21
v -28 6 21
v -28 10 21
v -22 10 21
v -22 14 21
v -21 10 21
v -21 14 21
v 22 10 21
v 22 14 21
v 23 10 21
v 23 14 21
v 28 6 21
v 28 10 21
v 29 6 21
v 29 10 21
v -23 10 20
v -23 14 20
v -22 10 20
v -22 14 20
v -20 15 20
v -20 45 20
v -18 15 20
v -18 45 20
v 19 15 20
v 19 45 20
v 21 15 20
v 21 45 20
v 23 10 20
v 23 14 20
v 24 10 20
v 24 14 20
v -19 14 19
v -19 15 19
v 20 14 19
v 20 15 19
v -22 15 18
v -22 45 18
v -20 15 18
v -20 45 18
v 21 15 18
v 21 45 18
v 23 15 18
v 23 45 18
v -28 10 -24
v -28 11 -24
v -24 10 -24
v -24 11 -24
v 24 10 -24
v 24 11 -24
v 28 10 -24
v 28 11 -24
v -28 10 24
v -28 11 24
v -24 10 24
v -24 11 24
v 24 10 24
v 24 11 24
v 28 10 24
v 28 11 24
v -22 15 -19
v -22 45 -19
v -20 15 -19
v -20 45 -19
v 21 15 -19
v 21 45 -19
v 23 15 -19
v 23 45 -19
v -23 10 -20
v -23 14 -20
v -22 10 -20
v -22 14 -20
v -19 14 -20
v -19 15 -20
v 20 14 -20
v 20 15 -20
v 23 10 -20
v 23 14 -20
v 24 10 -20
v 24 14 -20
v -29 6 -21
v -29 10 -21
v -28 6 -21
v -28 10 -21
v -22 10 -21
v -22 14 -21
v -21 10 -21
v -21 14 -21
v -20 15 -21
v -20 45 -21
v -18 15 -21
v -18 45 -21
v 19 15 -21
v 19 45 -21
v 21 15 -21
v 21 45 -21
v 22 10 -21
v 22 14 -21
v 23 10 -21
v 23 14 -21
v 28 6 -21
v 28 10 -21
v 29 6 -21
v 29 10 -21
v -21 10 -22
v -21 14 -22
v -20 10 -22
v -20 14 -22
v 21 10 -22
v 21 14 -22
v 22 10 -22
v 22 14 -22
v -20 10 -23
v -20 14 -23
v -18 15 -23
v -18 45 -23
v 19 15 -23
v 19 45 -23
v 21 10 -23
v 21 14 -23
v -28 6 -28
v -28 11 -28
v -25 9 -28
v -25 10 -28
v -24 10 -28
v -24 11 -28
v -23 9 -28
v -23 10 -28
v -21 6 -28
v -21 10 -28
v 21 6 -28
v 21 10 -28
v 23 9 -28
v 23 10 -28
v 24 10 -28
v 24 11 -28
v 25 9 -28
v 25 10 -28
v 28 6 -28
v 28 11 -28
v -21 6 -29
v -21 10 -29
v 21 6 -29
v 21 10 -29
v -30 0 -30
v -30 6 -30
v 30 0 -30
v 30 6 -30
v -30 0 30
v 30 0 30
v -30 0 -30
v 30 0 -30
v -18 15 22
v 19 15 22
v -20 15 20
v -18 15 20
v 19 15 20
v 21 15 20
v -19 15 19
v 20 15 19
v -22 15 18
v -20 15 18
v 21 15 18
v 23 15 18
v -22 15 -19
v -20 15 -19
v 21 15 -19
v 23 15 -19
v -19 15 -20
v 20 15 -20
v -20 15 -21
v -18 15 -21
v 19 15 -21
v 21 15 -21
v -18 15 -23
v 19 15 -23
v -30 6 30
v 30 6 30
v -21 6 29
v 21 6 29
v -28 6 28
v -21 6 28
v 21 6 28
v 28 6 28
v -29 6 21
v -28 6 21
v 28 6 21
v 29 6 21
v -29 6 -21
v -28 6 -21
v 28 6 -21
v 29 6 -21
v -28 6 -28
v -21 6 -28
v 21 6 -28
v 28 6 -28
v -21 6 -29
v 21 6 -29
v -30 6 -30
v 30 6 -30
v -21 10 29
v 21 10 29
v -24 10 28
v -23 10 28
v -21 10 28
v 21 10 28
v 23 10 28
v 24 10 28
v -28 10 24
v -24 10 24
v 24 10 24
v 28 10 24
v -28 10 23
v -23 10 23
v -20 10 23
v 21 10 23
v 23 10 23
v 28 10 23
v -21 10 22
v -20 10 22
v 21 10 22
v 22 10 22
v -29 10 21
v -28 10 21
v -22 10 21
v -21 10 21
v 22 10 21
v 23 10 21
v 28 10 21
v 29 10 21
v -23 10 20
v -22 10 20
v 23 10 20
v 24 10 20
v -23 10 -20
v -22 10 -20
v 23 10 -20
v 24 10 -20
v -29 10 -21
v -28 10 -21
v -22 10 -21
v -21 10 -21
v 22 10 -21
v 23 10 -21
v 28 10 -21
v 29 10 -21
v -21 10 -22
v -20 10 -22
v 21 10 -22
v 22 10 -22
v -28 10 -23
v -23 10 -23
v -20 10 -23
v 21 10 -23
v 23 10 -23
v 28 10 -23
v -28 10 -24
v -24 10 -24
v 24 10 -24
v 28 10 -24
v -24 10 -28
v -23 10 -28
v -21 10 -28
v 21 10 -28
v 23 10 -28
v 24 10 -28
v -21 10 -29
v 21 10 -29
v -28 11 28
v -24 11 28
v 24 11 28
v 28 11 28
v -28 11 24
v -24 11 24
v 24 11 24
v 28 11 24
v -28 11 -24
v -24 11 -24
v 24 11 -24
v 28 11 -24
v -28 11 -28
v -24 11 -28
v 24 11 -28
v 28 11 -28
v -20 14 23
v 21 14 23
v -21 14 22
v -20 14 22
v 21 14 22
v 22 14 22
v -22 14 21
v -21 14 21
v 22 14 21
v 23 14 21
v -23 14 20
v -22 14 20
v 23 14 20
v 24 14 20
v -19 14 19
v 20 14 19
v -23 14 -20
v -22 14 -20
v -19 14 -20
v 20 14 -20
v 23 14 -20
v 24 14 -20
v -22 14 -21
v -21 14 -21
v 22 14 -21
v 23 14 -21
v -21 14 -22
v -20 14 -22
v 21 14 -22
v 22 14 -22
v -20 14 -23
v 21 14 -23
v -18 45 22
v 19 45 22
v -20 45 20
v -18 45 20
v 19 45 20
v 21 45 20
v -22 45 18
v -20 45 18
v -18 45 18
v 19 45 18
v 21 45 18
v 23 45 18
v -22 45 -19
v -20 45 -19
v -18 45 -19
v 19 45 -19
v 21 45 -19
v 23 45 -19
v -20 45 -21
v -18 45 -21
v 19 45 -21
v 21 45 -21
v -18 45 -23
v 19 45 -23

# faces
f 3/2/1 2/2/1 1/2/1
f 4/2/1 2/2/1 3/2/1
f 7/3/1 6/3/1 5/3/1
f 8/3/1 6/3/1 7/3/1
f 13/2/1 10/2/1 9/2/1
f 14/2/1 10/2/1 13/2/1
f 15/2/1 12/2/1 11/2/1
f 16/2/1 12/2/1 15/2/1
f 17/2/1 13/2/1 9/2/1
f 17/4/1 14/4/1 13/4/1
f 18/4/1 14/4/1 17/4/1
f 19/2/1 10/2/1 14/2/1
f 19/4/1 14/4/1 18/4/1
f 20/2/1 10/2/1 19/2/1
f 21/2/1 15/2/1 11/2/1
f 22/4/1 16/4/1 15/4/1
f 22/2/1 15/2/1 21/2/1
f 23/4/1 16/4/1 22/4/1
f 24/2/1 12/2/1 16/2/1
f 24/4/1 16/4/1 23/4/1
f 25/2/1 18/2/1 17/2/1
f 25/2/1 17/2/1 9/2/1
f 26/2/1 18/2/1 25/2/1
f 27/2/1 24/2/1 23/2/1
f 28/2/1 12/2/1 24/2/1
f 28/2/1 24/2/1 27/2/1
f 31/3/1 30/3/1 29/3/1
f 32/3/1 30/3/1 31/3/1
f 37/1/1 34/1/1 33/1/1
f 38/1/1 34/1/1 37/1/1
f 39/1/1 36/1/1 35/1/1
f 40/1/1 36/1/1 39/1/1
f 43/3/1 42/3/1 41/3/1
f 44/3/1 42/3/1 43/3/1
f 49/3/1 46/3/1 45/3/1
f 50/3/1 46/3/1 49/3/1
f 55/3/1 48/3/1 47/3/1
f 56/3/1 48/3/1 55/3/1
f 57/1/1 52/1/1 51/1/1
f 58/1/1 52/1/1 57/1/1
f 59/1/1 54/1/1 53/1/1
f 60/1/1 54/1/1 59/1/1
f 65/3/1 62/3/1 61/3/1
f 66/3/1 62/3/1 65/3/1
f 67/3/1 64/3/1 63/3/1
f 68/3/1 64/3/1 67/3/1
f 73/3/1 70/3/1 69/3/1
f 74/3/1 70/3/1 73/3/1
f 75/3/1 72/3/1 71/3/1
f 76/3/1 72/3/1 75/3/1
f 79/5/1 78/5/1 77/5/1
f 80/5/1 78/5/1 79/5/1
f 85/3/1 82/3/1 81/3/1
f 86/3/1 82/3/1 85/3/1
f 87/3/1 84/3/1 83/3/1
f 88/3/1 84/3/1 87/3/1
f 93/2/1 90/2/1 89/2/1
f 94/2/1 90/2/1 93/2/1
f 95/2/1 92/2/1 91/2/1
f 96/2/1 92/2/1 95/2/1
f 97/2/2 98/2/2 101/2/2
f 101/2/2 98/2/2 102/2/2
f 99/2/2 100/2/2 103/2/2
f 103/2/2 100/2/2 104/2/2
f 105/3/2 106/3/2 109/3/2
f 109/3/2 106/3/2 110/3/2
f 107/3/2 108/3/2 111/3/2
f 111/3/2 108/3/2 112/3/2
f 113/5/2 114/5/2 115/5/2
f 115/5/2 114/5/2 116/5/2
f 117/3/2 118/3/2 121/3/2
f 121/3/2 118/3/2 122/3/2
f 119/3/2 120/3/2 127/3/2
f 127/3/2 120/3/2 128/3/2
f 123/3/2 124/3/2 129/3/2
f 129/3/2 124/3/2 130/3/2
f 125/3/2 126/3/2 131/3/2
f 131/3/2 126/3/2 132/3/2
f 133/3/2 134/3/2 137/3/2
f 137/3/2 134/3/2 138/3/2
f 135/3/2 136/3/2 139/3/2
f 139/3/2 136/3/2 140/3/2
f 141/1/2 142/1/2 145/1/2
f 145/1/2 142/1/2 146/1/2
f 143/1/2 144/1/2 147/1/2
f 147/1/2 144/1/2 148/1/2
f 149/1/2 150/1/2 153/1/2
f 153/1/2 150/1/2 154/1/2
f 151/1/2 152/1/2 155/1/2
f 155/1/2 152/1/2 156/1/2
f 157/3/2 158/3/2 159/3/2
f 159/3/2 158/3/2 160/3/2
f 161/3/2 162/3/2 163/3/2
f 163/3/2 162/3/2 164/3/2
f 165/2/2 166/2/2 169/2/2
f 169/2/2 166/2/2 170/2/2
f 167/2/2 168/2/2 171/2/2
f 171/2/2 168/2/2 172/2/2
f 165/2/2 169/2/2 173/2/2
f 169/4/2 170/4/2 173/4/2
f 173/4/2 170/4/2 174/4/2
f 170/2/2 166/2/2 175/2/2
f 174/4/2 170/4/2 175/4/2
f 175/2/2 166/2/2 176/2/2
f 167/2/2 171/2/2 177/2/2
f 171/4/2 172/4/2 178/4/2
f 177/2/2 171/2/2 178/2/2
f 178/4/2 172/4/2 179/4/2
f 172/2/2 168/2/2 180/2/2
f 179/4/2 172/4/2 180/4/2
f 173/2/2 174/2/2 181/2/2
f 165/2/2 173/2/2 181/2/2
f 181/2/2 174/2/2 182/2/2
f 179/2/2 180/2/2 183/2/2
f 180/2/2 168/2/2 184/2/2
f 183/2/2 180/2/2 184/2/2
f 185/3/2 186/3/2 187/3/2
f 187/3/2 186/3/2 188/3/2
f 189/2/2 190/2/2 191/2/2
f 191/2/2 190/2/2 192/2/2
f 195/2/3 194/2/3 193/2/3
f 196/2/3 194/2/3 195/2/3
f 199/3/3 198/3/3 197/3/3
f 200/3/3 198/3/3 199/3/3
f 203/2/3 202/2/3 201/2/3
f 204/2/3 202/2/3 203/2/3
f 205/4/3 204/4/3 203/4/3
f 205/2/3 202/2/3 204/2/3
f 206/2/3 202/2/3 205/2/3
f 207/2/3 203/2/3 201/2/3
f 207/4/3 205/4/3 203/4/3
f 208/4/3 205/4/3 207/4/3
f 209/2/3 207/2/3 201/2/3
f 209/2/3 208/2/3 207/2/3
f 210/2/3 208/2/3 209/2/3
f 213/2/3 212/2/3 211/2/3
f 214/2/3 212/2/3 213/2/3
f 215/4/3 214/4/3 213/4/3
f 217/4/3 215/4/3 213/4/3
f 217/2/3 213/2/3 211/2/3
f 218/2/3 216/2/3 215/2/3
f 218/4/3 215/4/3 217/4/3
f 219/2/3 217/2/3 211/2/3
f 219/2/3 218/2/3 217/2/3
f 220/2/3 216/2/3 218/2/3
f 220/2/3 218/2/3 219/2/3
f 223/3/3 222/3/3 221/3/3
f 224/3/3 222/3/3 223/3/3
f 227/1/3 226/1/3 225/1/3
f 228/1/3 226/1/3 227/1/3
f 231/3/3 230/3/3 229/3/3
f 232/3/3 230/3/3 231/3/3
f 235/1/3 234/1/3 233/1/3
f 236/1/3 234/1/3 235/1/3
f 239/3/3 238/3/3 237/3/3
f 240/3/3 238/3/3 239/3/3
f 243/1/3 242/1/3 241/1/3
f 244/1/3 242/1/3 243/1/3
f 247/1/3 246/1/3 245/1/3
f 248/1/3 246/1/3 247/1/3
f 251/3/3 250/3/3 249/3/3
f 252/3/3 250/3/3 251/3/3
f 255/3/3 254/3/3 253/3/3
f 256/3/3 254/3/3 255/3/3
f 259/3/3 258/3/3 257/3/3
f 260/3/3 258/3/3 259/3/3
f 263/3/3 262/3/3 261/3/3
f 264/3/3 262/3/3 263/3/3
f 267/3/3 266/3/3 265/3/3
f 268/3/3 266/3/3 267/3/3
f 271/5/3 270/5/3 269/5/3
f 272/5/3 270/5/3 271/5/3
f 275/3/3 274/3/3 273/3/3
f 276/3/3 274/3/3 275/3/3
f 279/3/3 278/3/3 277/3/3
f 280/3/3 278/3/3 279/3/3
f 283/2/3 282/2/3 281/2/3
f 284/2/3 282/2/3 283/2/3
f 287/2/3 286/2/3 285/2/3
f 288/2/3 286/2/3 287/2/3
f 289/2/4 290/2/4 291/2/4
f 291/2/4 290/2/4 292/2/4
f 293/2/4 294/2/4 295/2/4
f 295/2/4 294/2/4 296/2/4
f 297/3/4 298/3/4 299/3/4
f 299/3/4 298/3/4 300/3/4
f 301/3/4 302/3/4 303/3/4
f 303/3/4 302/3/4 304/3/4
f 305/3/4 306/3/4 307/3/4
f 307/3/4 306/3/4 308/3/4
f 309/5/4 310/5/4 311/5/4
f 311/5/4 310/5/4 312/5/4
f 313/3/4 314/3/4 315/3/4
f 315/3/4 314/3/4 316/3/4
f 317/3/4 318/3/4 319/3/4
f 319/3/4 318/3/4 320/3/4
f 321/1/4 322/1/4 323/1/4
f 323/1/4 322/1/4 324/1/4
f 325/3/4 326/3/4 327/3/4
f 327/3/4 326/3/4 328/3/4
f 329/3/4 330/3/4 331/3/4
f 331/3/4 330/3/4 332/3/4
f 333/1/4 334/1/4 335/1/4
f 335/1/4 334/1/4 336/1/4
f 337/3/4 338/3/4 339/3/4
f 339/3/4 338/3/4 340/3/4
f 341/1/4 342/1/4 343/1/4
f 343/1/4 342/1/4 344/1/4
f 345/1/4 346/1/4 347/1/4
f 347/1/4 346/1/4 348/1/4
f 351/3/4 352/3/4 353/3/4
f 353/3/4 352/3/4 354/3/4
f 349/3/4 350/3/4 355/3/4
f 355/3/4 350/3/4 356/3/4
f 357/2/4 358/2/4 359/2/4
f 359/2/4 358/2/4 360/2/4
f 359/4/4 360/4/4 361/4/4
f 360/2/4 358/2/4 361/2/4
f 361/2/4 358/2/4 362/2/4
f 357/2/4 359/2/4 363/2/4
f 359/4/4 361/4/4 363/4/4
f 363/4/4 361/4/4 364/4/4
f 357/2/4 363/2/4 365/2/4
f 363/2/4 364/2/4 365/2/4
f 365/2/4 364/2/4 366/2/4
f 367/2/4 368/2/4 369/2/4
f 369/2/4 368/2/4 370/2/4
f 369/4/4 370/4/4 371/4/4
f 369/4/4 371/4/4 373/4/4
f 367/2/4 369/2/4 373/2/4
f 371/2/4 372/2/4 374/2/4
f 373/4/4 371/4/4 374/4/4
f 367/2/4 373/2/4 375/2/4
f 373/2/4 374/2/4 375/2/4
f 374/2/4 372/2/4 376/2/4
f 375/2/4 374/2/4 376/2/4
f 377/3/4 378/3/4 379/3/4
f 379/3/4 378/3/4 380/3/4
f 381/2/4 382/2/4 383/2/4
f 383/2/4 382/2/4 384/2/4
f 387/2/5 386/2/5 385/2/5
f 388/2/5 386/2/5 387/2/5
f 392/3/5 390/3/5 389/3/5
f 393/3/5 390/3/5 392/3/5
f 395/3/5 392/3/5 391/3/5
f 395/3/5 394/3/5 393/3/5
f 395/3/5 393/3/5 392/3/5
f 396/3/5 394/3/5 395/3/5
f 398/3/5 395/3/5 391/3/5
f 399/3/5 394/3/5 396/3/5
f 401/3/5 398/3/5 397/3/5
f 402/3/5 395/3/5 398/3/5
f 402/3/5 398/3/5 401/3/5
f 403/3/5 400/3/5 399/3/5
f 403/3/5 399/3/5 396/3/5
f 404/3/5 400/3/5 403/3/5
f 405/3/5 395/3/5 402/3/5
f 406/3/5 403/3/5 396/3/5
f 407/3/5 405/3/5 402/3/5
f 407/3/5 406/3/5 405/3/5
f 408/3/5 406/3/5 407/3/5
f 409/3/5 406/3/5 408/3/5
f 410/3/5 403/3/5 406/3/5
f 410/3/5 406/3/5 409/3/5
f 411/3/5 409/3/5 408/3/5
f 412/3/5 409/3/5 411/3/5
f 413/2/6 414/2/6 415/2/6
f 415/2/6 414/2/6 416/2/6
f 413/2/6 415/2/6 417/2/6
f 417/2/6 415/2/6 418/2/6
f 416/2/6 414/2/6 419/2/6
f 419/2/6 414/2/6 420/2/6
f 413/2/6 417/2/6 421/2/6
f 421/2/6 417/2/6 422/2/6
f 420/2/6 414/2/6 423/2/6
f 423/2/6 414/2/6 424/2/6
f 413/2/6 421/2/6 425/2/6
f 424/2/6 414/2/6 428/2/6
f 425/2/6 426/2/6 429/2/6
f 427/2/6 428/2/6 432/2/6
f 429/2/6 430/2/6 433/2/6
f 431/2/6 432/2/6 434/2/6
f 429/2/6 433/2/6 435/2/6
f 433/2/6 434/2/6 435/2/6
f 413/2/6 425/2/6 435/2/6
f 425/2/6 429/2/6 435/2/6
f 434/2/6 432/2/6 436/2/6
f 435/2/6 434/2/6 436/2/6
f 428/2/6 414/2/6 436/2/6
f 432/2/6 428/2/6 436/2/6
f 437/3/6 438/3/6 441/3/6
f 441/3/6 438/3/6 442/3/6
f 439/4/6 440/4/6 446/4/6
f 443/4/6 444/4/6 447/4/6
f 445/4/6 446/4/6 449/4/6
f 440/2/6 441/2/6 450/2/6
f 449/4/6 446/4/6 450/4/6
f 441/2/6 442/2/6 450/2/6
f 442/2/6 443/2/6 450/2/6
f 446/4/6 440/4/6 450/4/6
f 450/2/6 443/2/6 451/2/6
f 451/2/6 443/2/6 452/2/6
f 447/4/6 448/4/6 453/4/6
f 452/2/6 443/2/6 453/2/6
f 443/4/6 447/4/6 453/4/6
f 453/4/6 448/4/6 454/4/6
f 450/2/6 451/2/6 455/2/6
f 449/2/6 450/2/6 455/2/6
f 455/2/6 451/2/6 456/2/6
f 453/2/6 454/2/6 457/2/6
f 452/2/6 453/2/6 457/2/6
f 457/2/6 454/2/6 458/2/6
f 449/2/6 455/2/6 460/2/6
f 460/2/6 455/2/6 461/2/6
f 461/2/6 455/2/6 462/2/6
f 458/2/6 454/2/6 463/2/6
f 463/2/6 454/2/6 464/2/6
f 464/2/6 454/2/6 465/2/6
f 460/2/6 461/2/6 467/2/6
f 467/2/6 461/2/6 468/2/6
f 464/2/6 465/2/6 469/2/6
f 469/2/6 465/2/6 470/2/6
f 460/2/6 467/2/6 471/2/6
f 470/2/6 465/2/6 474/2/6
f 459/3/6 460/3/6 475/3/6
f 471/2/6 472/2/6 476/2/6
f 475/3/6 460/3/6 476/3/6
f 460/2/6 471/2/6 476/2/6
f 476/2/6 472/2/6 477/2/6
f 473/2/6 474/2/6 480/2/6
f 465/3/6 466/3/6 481/3/6
f 474/2/6 465/2/6 481/2/6
f 480/2/6 474/2/6 481/2/6
f 481/3/6 466/3/6 482/3/6
f 477/2/6 478/2/6 483/2/6
f 476/2/6 477/2/6 483/2/6
f 479/2/6 480/2/6 486/2/6
f 480/2/6 481/2/6 486/2/6
f 483/2/6 484/2/6 487/2/6
f 476/2/6 483/2/6 487/2/6
f 487/2/6 484/2/6 488/2/6
f 488/2/6 484/2/6 489/2/6
f 485/2/6 486/2/6 490/2/6
f 486/2/6 481/2/6 491/2/6
f 490/2/6 486/2/6 491/2/6
f 491/2/6 481/2/6 492/2/6
f 487/4/6 488/4/6 493/4/6
f 493/4/6 488/4/6 494/4/6
f 491/4/6 492/4/6 495/4/6
f 495/4/6 492/4/6 496/4/6
f 494/4/6 488/4/6 497/4/6
f 488/2/6 489/2/6 498/2/6
f 497/4/6 488/4/6 498/4/6
f 489/2/6 490/2/6 498/2/6
f 490/2/6 491/2/6 498/2/6
f 498/2/6 491/2/6 499/2/6
f 499/2/6 491/2/6 500/2/6
f 491/4/6 495/4/6 501/4/6
f 500/2/6 491/2/6 501/2/6
f 501/4/6 495/4/6 502/4/6
f 499/3/6 500/3/6 503/3/6
f 503/3/6 500/3/6 504/3/6
f 505/2/6 506/2/6 509/2/6
f 509/2/6 506/2/6 510/2/6
f 507/2/6 508/2/6 511/2/6
f 511/2/6 508/2/6 512/2/6
f 513/2/6 514/2/6 517/2/6
f 517/2/6 514/2/6 518/2/6
f 515/2/6 516/2/6 519/2/6
f 519/2/6 516/2/6 520/2/6
f 521/3/6 522/3/6 524/3/6
f 524/3/6 522/3/6 525/3/6
f 523/1/6 524/1/6 528/1/6
f 525/1/6 526/1/6 528/1/6
f 524/1/6 525/1/6 528/1/6
f 528/1/6 526/1/6 529/1/6
f 527/1/6 528/1/6 532/1/6
f 529/1/6 530/1/6 532/1/6
f 528/1/6 529/1/6 532/1/6
f 532/1/6 530/1/6 533/1/6
f 532/1/6 533/1/6 535/1/6
f 535/1/6 533/1/6 536/1/6
f 531/3/6 532/3/6 537/3/6
f 532/1/6 535/1/6 538/1/6
f 537/3/6 532/3/6 538/3/6
f 538/1/6 535/1/6 539/1/6
f 536/1/6 533/1/6 540/1/6
f 533/3/6 534/3/6 541/3/6
f 540/1/6 533/1/6 541/1/6
f 541/3/6 534/3/6 542/3/6
f 538/1/6 539/1/6 543/1/6
f 539/1/6 540/1/6 543/1/6
f 540/1/6 541/1/6 543/1/6
f 543/1/6 541/1/6 544/1/6
f 544/1/6 541/1/6 545/1/6
f 545/1/6 541/1/6 546/1/6
f 544/1/6 545/1/6 547/1/6
f 547/1/6 545/1/6 548/1/6
f 548/1/6 545/1/6 549/1/6
f 549/1/6 545/1/6 550/1/6
f 548/3/6 549/3/6 551/3/6
f 551/3/6 549/3/6 552/3/6
f 553/3/6 554/3/6 556/3/6
f 556/3/6 554/3/6 557/3/6
f 555/3/6 556/3/6 560/3/6
f 557/3/6 558/3/6 560/3/6
f 556/3/6 557/3/6 560/3/6
f 560/3/6 558/3/6 561/3/6
f 561/3/6 558/3/6 562/3/6
f 562/3/6 558/3/6 563/3/6
f 559/3/6 560/3/6 565/3/6
f 560/3/6 561/3/6 565/3/6
f 565/3/6 561/3/6 566/3/6
f 561/6/6 562/6/6 567/6/6
f 566/3/6 561/3/6 567/3/6
f 563/3/6 564/3/6 568/3/6
f 567/6/6 562/6/6 568/6/6
f 562/3/6 563/3/6 568/3/6
f 568/3/6 564/3/6 569/3/6
f 569/3/6 564/3/6 570/3/6
f 566/3/6 567/3/6 571/3/6
f 568/3/6 569/3/6 571/3/6
f 567/3/6 568/3/6 571/3/6
f 571/3/6 569/3/6 572/3/6
f 572/3/6 569/3/6 573/3/6
f 573/3/6 569/3/6 574/3/6
f 572/3/6 573/3/6 575/3/6
f 575/3/6 573/3/6 576/3/6
